#!OML:ASF H:\Terrain\Patient Classification 1\Takeo\Monday\TakeoMonday.ASF
:FULLY-SPECIFIED
:DEGREES
210
root 8.71348 16.1516 -1.25073 11.8001 8.4137 -0.800183
lowerback 32.6189 -1.17277 6.9329
upperback 11.9316 0.680873 -0.400212
thorax -3.54388 0.580656 -4.3073
lowerneck -12.9629 -9.80603 -5.64529
upperneck -17.6229 -12.0463 7.38492
head -2.779 -5.93917 3.13881
rclavicle -7.15625e-015 -1.59028e-015
rhumerus 52.6646 -12.5401 -35.2041
rradius 53.2851
rwrist -14.4499
rhand -43.1374 43.2488
rfingers 7.12502
rthumb -15.9907 13.8888
lclavicle -7.15625e-015 -1.59028e-015
lhumerus -22.9617 1.18248 88.3622
lradius 66.0897
lwrist 32.5246
lhand -29.8753 13.5876
lfingers 7.12502
lthumb -3.19703 43.5433
rfemur -51.6854 -3.68736 21.285
rtibia 56.3405
rfoot -15.1128 -7.45656
rtoes 0.877704
lfemur -41.4557 9.81847 -22.4703
ltibia 62.5226
lfoot -28.5696 15.3424
ltoes -7.3297
211
root 8.70717 16.2119 -1.21648 11.6834 8.34218 -0.695045
lowerback 31.7263 -1.04374 6.68962
upperback 11.9695 0.673688 -0.325895
thorax -3.59383 0.559367 -4.44995
lowerneck -12.7241 -9.87342 -5.58811
upperneck -17.5965 -12.1712 7.21653
head -2.81538 -6.00131 3.08047
rclavicle 1.74931e-014 3.18055e-015
rhumerus 52.5844 -12.6793 -34.9268
rradius 53.1693
rwrist -14.6547
rhand -43.0565 42.8489
rfingers 7.12502
rthumb -15.9128 13.4827
lclavicle 1.74931e-014 3.18055e-015
lhumerus -23.4653 1.10758 88.2902
lradius 65.9464
lwrist 32.4854
lhand -29.7036 13.3964
lfingers 7.12502
lthumb -3.03118 43.3546
rfemur -50.9236 -3.55467 21.1726
rtibia 55.4123
rfoot -14.788 -7.64121
rtoes 0.839794
lfemur -40.6918 9.85999 -22.4793
ltibia 61.6052
lfoot -28.1561 15.3472
ltoes -7.05669
212
root 8.69887 16.2788 -1.18204 11.4662 8.49349 -0.987679
lowerback 31.1878 -1.11317 6.86242
upperback 11.7836 0.602983 -0.303212
thorax -3.57177 0.523627 -4.4941
lowerneck -12.5943 -9.97646 -5.85398
upperneck -17.792 -12.2597 7.47241
head -2.86717 -6.03543 3.22306
rclavicle 1.66979e-014 -2.18663e-014
rhumerus 52.7522 -12.8687 -34.7977
rradius 53.0229
rwrist -14.7317
rhand -43.0485 42.0922
rfingers 7.12502
rthumb -15.905 12.7253
lclavicle 1.66979e-014 -2.18663e-014
lhumerus -23.7785 1.25111 88.341
lradius 65.7885
lwrist 32.4288
lhand -29.5205 12.7331
lfingers 7.12502
lthumb -2.85434 42.6938
rfemur -49.9835 -3.45393 21.5053
rtibia 54.4586
rfoot -14.7038 -7.83681
rtoes 0.824022
lfemur -39.9581 9.77849 -21.98
ltibia 60.7108
lfoot -27.992 15.1743
ltoes -7.32168
213
root 8.68962 16.3512 -1.14409 11.118 8.69253 -1.17354
lowerback 30.677 -1.19506 6.85225
upperback 11.7199 0.464654 -0.28105
thorax -3.43469 0.458851 -4.41115
lowerneck -12.8746 -10.0049 -6.07705
upperneck -17.6854 -12.2225 7.78294
head -2.7512 -6.0055 3.34141
rclavicle 3.22031e-014 -3.73715e-014
rhumerus 53.1464 -13.1554 -34.8772
rradius 52.7199
rwrist -14.4523
rhand -43.0592 41.8843
rfingers 7.12502
rthumb -15.9154 12.5183
lclavicle 3.22031e-014 -3.73715e-014
lhumerus -23.9482 1.59478 88.3817
lradius 65.6395
lwrist 32.3371
lhand -29.5555 12.5992
lfingers 7.12502
lthumb -2.88821 42.5594
rfemur -48.8343 -3.42794 21.7076
rtibia 53.4927
rfoot -14.6333 -7.96553
rtoes 0.941787
lfemur -38.9752 9.59593 -21.5663
ltibia 59.7846
lfoot -27.9041 15.0677
ltoes -8.33931
214
root 8.6765 16.41 -1.10162 10.7116 8.76427 -1.32367
lowerback 30.3064 -1.18219 6.74499
upperback 11.5685 0.42543 -0.320642
thorax -3.44886 0.432763 -4.37737
lowerneck -13.0351 -9.99061 -5.85065
upperneck -17.3884 -12.2323 7.61872
head -2.64366 -6.01549 3.22252
rclavicle 1.82882e-014 0
rhumerus 53.3143 -13.4136 -34.7778
rradius 52.3986
rwrist -14.5167
rhand -42.8972 42.0415
rfingers 7.12502
rthumb -15.7593 12.6631
lclavicle 1.82882e-014 0
lhumerus -24.3645 1.68747 88.2951
lradius 65.627
lwrist 32.5375
lhand -29.8578 12.609
lfingers 7.12502
lthumb -3.18015 42.565
rfemur -47.6837 -3.17882 21.7502
rtibia 52.5084
rfoot -14.5477 -7.95748
rtoes 2.09434
lfemur -37.873 9.53172 -21.1883
ltibia 58.8876
lfoot -27.5461 15.0505
ltoes -7.99304
215
root 8.66192 16.4584 -1.05549 10.3184 8.77044 -1.58304
lowerback 29.9801 -1.16799 6.78271
upperback 11.3517 0.428697 -0.397074
thorax -3.54565 0.426561 -4.48323
lowerneck -12.749 -9.98767 -5.54844
upperneck -17.4529 -12.2956 7.37931
head -2.74288 -6.06042 3.11149
rclavicle -7.55382e-015 8.54774e-015
rhumerus 53.3138 -13.5848 -34.4531
rradius 52.2164
rwrist -15.086
rhand -42.6659 41.8723
rfingers 7.12502
rthumb -15.5366 12.4765
lclavicle -7.55382e-015 8.54774e-015
lhumerus -24.8318 1.59696 88.1327
lradius 65.5206
lwrist 32.8677
lhand -30.1628 11.9802
lfingers 7.12502
lthumb -3.4747 41.9316
rfemur -46.6225 -2.84319 21.9262
rtibia 51.5396
rfoot -14.4657 -8.01814
rtoes 2.9054
lfemur -36.8217 9.62047 -20.6984
ltibia 58.0003
lfoot -27.1585 14.9007
ltoes -6.5134
216
root 8.64948 16.5154 -1.00691 9.99156 8.75705 -1.81126
lowerback 29.4797 -1.14445 6.77073
upperback 11.1716 0.417086 -0.457904
thorax -3.52364 0.416561 -4.53502
lowerneck -12.2383 -9.98776 -5.54737
upperneck -17.8097 -12.3068 7.48033
head -2.94492 -6.07213 3.19543
rclavicle -3.37934e-015 2.84262e-014
rhumerus 53.4561 -13.757 -34.7399
rradius 51.9313
rwrist -14.9652
rhand -42.7449 42.2193
rfingers 7.12502
rthumb -15.6127 12.8293
lclavicle -3.37934e-015 2.84262e-014
lhumerus -25.1098 1.72406 88.0126
lradius 65.163
lwrist 32.608
lhand -30.0205 11.5691
lfingers 7.12502
lthumb -3.33721 41.5227
rfemur -45.6095 -2.60088 22.1634
rtibia 50.6063
rfoot -14.2759 -8.25547
rtoes 2.93542
lfemur -35.8779 9.67661 -20.2555
ltibia 57.0814
lfoot -26.9278 14.7508
ltoes -6.10519
217
root 8.64893 16.5798 -0.958146 9.78658 8.73736 -1.71222
lowerback 28.82 -1.11679 6.59466
upperback 11.0566 0.350753 -0.596234
thorax -3.36277 0.385407 -4.55842
lowerneck -12.3318 -9.99951 -5.49835
upperneck -17.7911 -12.3176 7.46842
head -2.92596 -6.07612 3.17605
rclavicle -7.35503e-015 2.60408e-014
rhumerus 53.6848 -14.0678 -35.3816
rradius 51.575
rwrist -14.2894
rhand -42.9782 42.9457
rfingers 7.12502
rthumb -15.8374 13.5734
lclavicle -7.35503e-015 2.60408e-014
lhumerus -25.2672 1.82899 87.9418
lradius 64.9202
lwrist 32.3819
lhand -30.0417 11.7623
lfingers 7.12502
lthumb -3.35772 41.7156
rfemur -44.6408 -2.58618 22.0428
rtibia 49.7252
rfoot -14.1146 -8.2683
rtoes 3.47096
lfemur -34.9233 9.495 -20.2233
ltibia 56.1027
lfoot -26.731 14.8233
ltoes -6.28641
218
root 8.65524 16.6366 -0.91259 9.58436 8.65077 -1.25971
lowerback 28.2921 -1.08852 6.11672
upperback 10.9817 0.216634 -0.794632
thorax -3.23004 0.315648 -4.45598
lowerneck -12.8703 -9.99722 -5.29953
upperneck -17.5103 -12.3355 7.13204
head -2.77327 -6.07896 2.98365
rclavicle -1.45113e-014 -1.25234e-014
rhumerus 54.0407 -14.3783 -35.5452
rradius 51.2385
rwrist -14.1184
rhand -43.0883 44.3171
rfingers 7.12502
rthumb -15.9434 14.9533
lclavicle -1.45113e-014 -1.25234e-014
lhumerus -25.396 1.93617 87.9191
lradius 64.8315
lwrist 32.538
lhand -29.8878 12.8232
lfingers 7.12502
lthumb -3.2091 42.7788
rfemur -43.6702 -2.76021 21.5809
rtibia 48.9035
rfoot -13.8989 -8.09906
rtoes 2.64803
lfemur -33.8142 9.3035 -20.6156
ltibia 55.0542
lfoot -26.4978 14.9896
ltoes -6.38834
219
root 8.64773 16.6881 -0.86366 9.26854 8.56479 -1.3531
lowerback 27.8788 -1.07403 5.882
upperback 10.8132 0.151033 -0.79102
thorax -3.24103 0.271462 -4.29329
lowerneck -12.8048 -10.0067 -5.45147
upperneck -17.5744 -12.3354 7.09975
head -2.80018 -6.0672 3.00504
rclavicle -6.26172e-015 1.32192e-014
rhumerus 54.5018 -14.4605 -35.2599
rradius 50.8037
rwrist -14.513
rhand -43.0376 45.3643
rfingers 7.12502
rthumb -15.8946 15.9966
lclavicle -6.26172e-015 1.32192e-014
lhumerus -25.8642 2.13743 87.8863
lradius 64.8405
lwrist 32.6182
lhand -29.3167 14.6523
lfingers 7.12502
lthumb -2.65753 44.6155
rfemur -42.6589 -2.69387 21.7961
rtibia 48.1138
rfoot -13.5956 -8.22172
rtoes 1.09507
lfemur -32.7733 9.39835 -20.347
ltibia 54.0419
lfoot -26.2358 14.9366
ltoes -6.53678
220
root 8.62909 16.7391 -0.811621 9.01488 8.51878 -1.60578
lowerback 27.4251 -1.03016 5.73381
upperback 10.5013 0.144562 -0.799035
thorax -3.38291 0.250547 -4.21194
lowerneck -12.4058 -9.9933 -5.64976
upperneck -17.6534 -12.2961 7.29283
head -2.86982 -6.04228 3.13075
rclavicle -1.61016e-014 1.17283e-014
rhumerus 54.595 -14.3492 -34.8643
rradius 50.5663
rwrist -14.8947
rhand -42.7325 43.6983
rfingers 7.12502
rthumb -15.6008 14.3074
lclavicle -1.61016e-014 1.17283e-014
lhumerus -26.6822 2.13353 87.7419
lradius 64.9642
lwrist 32.5583
lhand -29.7332 15.4034
lfingers 7.12502
lthumb -3.05982 45.3612
rfemur -41.7432 -2.36444 22.1129
rtibia 47.3477
rfoot -13.4009 -8.48808
rtoes 1.65944
lfemur -31.8644 9.48421 -19.8737
ltibia 53.0772
lfoot -25.9911 14.7861
ltoes -6.2143
221
root 8.61427 16.7842 -0.762321 8.83178 8.54515 -1.70499
lowerback 26.9084 -1.03797 5.55075
upperback 10.2016 0.0567687 -0.89615
thorax -3.48717 0.193746 -4.1844
lowerneck -12.1314 -9.90303 -5.73123
upperneck -17.657 -12.1603 7.45188
head -2.90822 -5.97364 3.21929
rclavicle 5.93869e-015 -1.36664e-015
rhumerus 54.6579 -14.253 -34.8832
rradius 50.3759
rwrist -14.77
rhand -42.4004 41.8307
rfingers 7.12502
rthumb -15.2809 12.4152
lclavicle 5.93869e-015 -1.36664e-015
lhumerus -27.3205 2.1138 87.523
lradius 64.9802
lwrist 32.5612
lhand -30.5723 14.4319
lfingers 7.12502
lthumb -3.87014 44.3765
rfemur -40.9145 -2.05787 22.186
rtibia 46.5509
rfoot -13.3027 -8.67645
rtoes 1.94996
lfemur -31.0085 9.36682 -19.5834
ltibia 52.1706
lfoot -25.7688 14.7017
ltoes -5.9264
222
root 8.6045 16.8289 -0.709736 8.63278 8.58787 -1.86785
lowerback 26.2843 -1.08378 5.52181
upperback 10.0582 -0.0473006 -0.956041
thorax -3.36215 0.142628 -4.19809
lowerneck -11.8418 -9.91271 -6.00171
upperneck -17.9778 -12.133 7.6953
head -3.03995 -5.9504 3.38211
rclavicle -4.62174e-015 -6.5102e-015
rhumerus 55.0535 -14.4407 -35.012
rradius 50.0161
rwrist -14.5584
rhand -42.331 41.2741
rfingers 7.12502
rthumb -15.214 11.8535
lclavicle -4.62174e-015 -6.5102e-015
lhumerus -27.6135 2.13686 87.3697
lradius 64.927
lwrist 32.7649
lhand -30.7321 13.3532
lfingers 7.12502
lthumb -4.02442 43.2949
rfemur -40.0884 -1.85071 22.3344
rtibia 45.723
rfoot -13.2274 -8.72319
rtoes 1.28038
lfemur -30.1394 9.23209 -19.2413
ltibia 51.2637
lfoot -25.8094 14.5789
ltoes -6.83958
223
root 8.59618 16.8779 -0.653933 8.36229 8.55519 -1.8951
lowerback 25.7576 -1.08624 5.45566
upperback 9.96844 -0.104258 -1.09218
thorax -3.21667 0.117479 -4.28885
lowerneck -11.7838 -10.0457 -6.10062
upperneck -18.1653 -12.2995 7.72741
head -3.09789 -6.02632 3.41623
rclavicle -7.70291e-015 -5.51627e-015
rhumerus 55.3402 -14.7365 -34.7778
rradius 49.726
rwrist -14.8283
rhand -42.4848 40.9629
rfingers 7.12502
rthumb -15.3622 11.5536
lclavicle -7.70291e-015 -5.51627e-015
lhumerus -27.883 2.1732 87.262
lradius 65.0321
lwrist 32.8356
lhand -30.5957 12.7691
lfingers 7.12502
lthumb -3.89271 42.7133
rfemur -39.1886 -1.6273 22.2923
rtibia 44.9059
rfoot -13.2652 -8.63815
rtoes 2.35819
lfemur -29.1473 9.13665 -19.0528
ltibia 50.3662
lfoot -25.8848 14.5298
ltoes -7.61632
